<svg xmlns="http://www.w3.org/2000/svg" viewBox="0 0 512 512" role="img" aria-label="Compass Companion avatar concept C">
  <rect width="512" height="512" rx="92" fill="#0f172a"/>
  <circle cx="256" cy="256" r="170" fill="#172033"/>
  <circle cx="256" cy="256" r="132" fill="#f8fafc"/>
  <path d="M154 182c42-36 75-54 102-54s60 18 102 54" fill="none" stroke="#7dd3c7" stroke-width="20" stroke-linecap="round"/>
  <circle cx="256" cy="278" r="84" fill="#d0d7e2"/>
  <circle cx="224" cy="270" r="13" fill="#101828"/>
  <circle cx="288" cy="270" r="13" fill="#101828"/>
  <path d="M224 316c22 18 42 18 64 0" fill="none" stroke="#101828" stroke-width="15" stroke-linecap="round"/>
  <g transform="translate(256 398)">
    <path d="M0-52 24 0H-24L0-52Z" fill="#14b8a6"/>
    <path d="M0 52-24 0h48L0 52Z" fill="#f8fafc"/>
  </g>
  <path d="M256 58v44M58 256h44M410 256h44" stroke="#7dd3c7" stroke-width="18" stroke-linecap="round"/>
</svg>
