<svg xmlns="http://www.w3.org/2000/svg" viewBox="0 0 512 512" role="img" aria-label="Latch">
  <rect width="512" height="512" rx="86" fill="#101828"/>
  <path d="M150 228v-42c0-64 46-111 106-111s106 47 106 111v42h-48v-42c0-38-24-65-58-65s-58 27-58 65v42h-48Z" fill="#14b8a6"/>
  <rect x="116" y="206" width="280" height="228" rx="38" fill="#f8fafc"/>
  <rect x="154" y="248" width="204" height="144" rx="22" fill="#d0d7e2"/>
  <circle cx="256" cy="300" r="28" fill="#101828"/>
  <path d="M242 319h28l12 52h-52l12-52Z" fill="#101828"/>
  <path d="M168 174h48v54h-48v-54Zm128 0h48v54h-48v-54Z" fill="#0f766e"/>
</svg>
